<svg version="1.1" viewBox="0.0 0.0 322.59055118110234 297.9448818897638" fill="none" stroke="none" stroke-linecap="square" stroke-miterlimit="10" xmlns:xlink="http://www.w3.org/1999/xlink" xmlns="http://www.w3.org/2000/svg"><clipPath id="p.0"><path d="m0 0l322.59055 0l0 297.9449l-322.59055 0l0 -297.9449z" clip-rule="nonzero"/></clipPath><g clip-path="url(#p.0)"><path fill="#000000" fill-opacity="0.0" d="m0 0l322.59055 0l0 297.9449l-322.59055 0z" fill-rule="evenodd"/><g filter="url(#shadowFilter-p.1)"><use xlink:href="#p.1" transform="matrix(1.0 0.0 0.0 1.0 -6.293203919578412 7.771459384227362)"/></g><defs><filter id="shadowFilter-p.1" filterUnits="userSpaceOnUse"><feGaussianBlur in="SourceAlpha" stdDeviation="3.0" result="blur"/><feComponentTransfer in="blur" color-interpolation-filters="sRGB"><feFuncR type="linear" slope="0" intercept="0.0"/><feFuncG type="linear" slope="0" intercept="0.0"/><feFuncB type="linear" slope="0" intercept="0.0"/><feFuncA type="linear" slope="0.64" intercept="0"/></feComponentTransfer></filter></defs><g id="p.1"><defs><radialGradient id="p.2" gradientUnits="userSpaceOnUse" gradientTransform="matrix(11.096589065021412 0.0 0.0 11.096589065021412 0.0 0.0)" spreadMethod="pad" cx="12.494381139191267" cy="13.8012663828424" fx="12.494381139191267" fy="13.8012663828424" r="11.096589088439941"><stop offset="0.0" stop-color="#dbd4eb"/><stop offset="1.0" stop-color="#9180bb"/></radialGradient></defs><path fill="url(#p.2)" d="m60.21982 153.14699l0 0c0 -52.427917 35.112152 -94.92914 78.4252 -94.92914l0 0c20.799652 0 40.747406 10.001438 55.454987 27.804104c14.707565 17.802666 22.9702 41.948257 22.9702 67.12504l0 0c0 52.427902 -35.112152 94.92912 -78.425186 94.92912l0 0c-43.31305 0 -78.4252 -42.50122 -78.4252 -94.92912z" fill-rule="evenodd"/></g><g filter="url(#shadowFilter-p.3)"><use xlink:href="#p.3" transform="matrix(1.0 0.0 0.0 1.0 -6.293203919578412 7.771459384227362)"/></g><defs><filter id="shadowFilter-p.3" filterUnits="userSpaceOnUse"><feGaussianBlur in="SourceAlpha" stdDeviation="3.0" result="blur"/><feComponentTransfer in="blur" color-interpolation-filters="sRGB"><feFuncR type="linear" slope="0" intercept="0.0"/><feFuncG type="linear" slope="0" intercept="0.0"/><feFuncB type="linear" slope="0" intercept="0.0"/><feFuncA type="linear" slope="0.64" intercept="0"/></feComponentTransfer></filter></defs><g id="p.3"><defs><radialGradient id="p.4" gradientUnits="userSpaceOnUse" gradientTransform="matrix(10.812009759341196 0.0 0.0 10.812009759341196 0.0 0.0)" spreadMethod="pad" cx="8.04800345174856" cy="9.390986072977146" fx="8.04800345174856" fy="9.390986072977146" r="10.812009811401367"><stop offset="0.0" stop-color="#dcecd5"/><stop offset="1.0" stop-color="#93bc81"/></radialGradient></defs><path fill="url(#p.4)" d="m12.526903 101.53543l0 0c0 -49.75781 33.349495 -90.09448 74.48819 -90.09448l0 0c19.755493 0 38.70186 9.492071 52.671112 26.388065c13.969238 16.895992 21.817078 39.811882 21.817078 63.70642l0 0c0 49.757812 -33.349503 90.0945 -74.48819 90.0945l0 0c-41.13869 0 -74.48819 -40.336685 -74.48819 -90.0945z" fill-rule="evenodd"/><path stroke="#b4a7d6" stroke-width="1.0" stroke-linejoin="round" stroke-linecap="butt" d="m12.526903 101.53543l0 0c0 -49.75781 33.349495 -90.09448 74.48819 -90.09448l0 0c19.755493 0 38.70186 9.492071 52.671112 26.388065c13.969238 16.895992 21.817078 39.811882 21.817078 63.70642l0 0c0 49.757812 -33.349503 90.0945 -74.48819 90.0945l0 0c-41.13869 0 -74.48819 -40.336685 -74.48819 -90.0945z" fill-rule="evenodd"/></g><g filter="url(#shadowFilter-p.5)"><use xlink:href="#p.5" transform="matrix(1.0 0.0 0.0 1.0 -6.293203919578412 7.771459384227362)"/></g><defs><filter id="shadowFilter-p.5" filterUnits="userSpaceOnUse"><feGaussianBlur in="SourceAlpha" stdDeviation="3.0" result="blur"/><feComponentTransfer in="blur" color-interpolation-filters="sRGB"><feFuncR type="linear" slope="0" intercept="0.0"/><feFuncG type="linear" slope="0" intercept="0.0"/><feFuncB type="linear" slope="0" intercept="0.0"/><feFuncA type="linear" slope="0.64" intercept="0"/></feComponentTransfer></filter></defs><g id="p.5"><path fill="#000000" fill-opacity="0.0" d="m37.599083 33.45013l110.99212 0l0 170.14172l-110.99212 0z" fill-rule="evenodd"/><path fill="#000000" d="m111.69283 76.907005q0.1875 0.96875 -0.4375 1.6875q-0.625 0.71875 -2.734375 1.875q-4.328125 2.109375 -4.890625 3.171875q-0.484375 0.375 -2.171875 1.625q-1.671875 1.25 -4.171875 3.078125q-3.75 2.484375 -6.484375 4.703125q-2.734375 2.203125 -3.59375 3.359375q-0.296875 0 -0.734375 0.296875q-0.421875 0.28125 -0.703125 0.171875q-0.203125 0.109375 -0.875 0.59375q-0.671875 0.46875 -0.953125 0.859375q-0.28125 0.765625 -0.90625 1.484375q-0.625 0.71875 -1.5 0.625q-1.8125 0.953125 -7.1875 5.28125q0.671875 7.390625 3.734375 12.953125q2.78125 6.140625 5.671875 9.03125q2.015625 2.2031174 3.78125 3.4531174q1.78125 1.25 2.75 1.25q0.859375 0.28125 2.390625 1.34375q1.53125 1.046875 1.640625 1.71875q0.09375 0.203125 0.09375 0.765625q0 1.453125 -0.484375 2.125q-0.390625 0.671875 -0.671875 1.0q-0.28125 0.34375 -0.953125 0.34375q-1.0625 0 -2.59375 -0.78125q-1.546875 0.109375 -5.296875 -2.875q-3.734375 -2.96875 -5.75 -5.46875q-2.59375 -3.7499924 -4.46875 -6.8124924q-1.859375 -3.078125 -2.828125 -6.71875q-0.375 -1.734375 -1.4375 -5.1875q-0.671875 -1.828125 -0.765625 -2.59375l0 -1.828125l-1.15625 2.890625q-0.09375 0.28125 -1.203125 3.171875q-1.09375 2.875 -3.109375 10.171875l-1.546875 4.9843674q-2.203125 6.90625 -2.921875 8.734375q-0.71875 1.828125 -1.484375 1.828125q-0.390625 0 -1.015625 -0.4375q-0.625 -0.421875 -0.90625 -0.625q-0.765625 -0.46875 -1.0625 -0.859375q-0.28125 -0.390625 -0.28125 -0.953125q0 -0.671875 0.484375 -2.40625q-0.109375 -1.25 0.171875 -2.390625q0.296875 -1.15625 0.296875 -1.359375q0.671875 0 0.671875 -1.53125q0 -0.7656174 0.875 -3.3593674l0.859375 -2.96875l1.15625 -2.796875q1.046875 -2.6875 1.046875 -2.875q0 -1.25 1.25 -3.171875q0.390625 -1.140625 0.671875 -2.484375q0.28125 -1.34375 0.28125 -2.21875q0.203125 -0.46875 1.0625 -2.203125q0.859375 -1.734375 1.25 -3.453125q0.09375 -0.484375 0.328125 -1.0625q0.25 -0.578125 0.53125 -1.4375l3.171875 -8.640625l1.4375 -3.265625q0.1875 -0.484375 1.296875 -2.96875q1.109375 -2.5 1.484375 -2.5l0 -1.0625q0 -0.375 1.0625 -2.484375l1.15625 -2.3125q0.765625 -1.25 1.1875 -2.4375q0.4375 -1.203125 0.53125 -1.59375q0.09375 -0.1875 0.375 -0.671875q0.296875 -0.484375 0.6875 -0.859375q1.046875 -0.765625 1.921875 -0.765625q1.34375 0 2.296875 1.921875q0.671875 1.34375 0.671875 2.390625q0 0.96875 -0.859375 2.3125q-3.265625 7.0 -6.578125 14.390625q-3.3125 7.390625 -3.3125 8.546875l3.265625 -2.40625q2.5 -2.484375 7.96875 -6.625l11.8125 -9.59375q2.6875 -1.34375 6.328125 -4.21875q0.96875 -0.578125 1.53125 -1.0625q0.578125 -0.484375 0.96875 -0.671875q0.578125 -0.484375 2.296875 -1.671875q1.734375 -1.203125 2.21875 -1.109375q1.046875 -0.484375 2.296875 0.96875q1.25 1.4375 1.0625 2.671875z" fill-rule="nonzero"/></g><g filter="url(#shadowFilter-p.6)"><use xlink:href="#p.6" transform="matrix(1.0 0.0 0.0 1.0 -6.293203919578412 7.771459384227362)"/></g><defs><filter id="shadowFilter-p.6" filterUnits="userSpaceOnUse"><feGaussianBlur in="SourceAlpha" stdDeviation="3.0" result="blur"/><feComponentTransfer in="blur" color-interpolation-filters="sRGB"><feFuncR type="linear" slope="0" intercept="0.0"/><feFuncG type="linear" slope="0" intercept="0.0"/><feFuncB type="linear" slope="0" intercept="0.0"/><feFuncA type="linear" slope="0.64" intercept="0"/></feComponentTransfer></filter></defs><g id="p.6"><path fill="#000000" fill-opacity="0.0" d="m58.69882 65.54199l136.6614 0l0 129.79527l-136.6614 0z" fill-rule="evenodd"/><path fill="#000000" d="m84.4957 168.62387q-3.359375 -2.59375 -4.421875 -4.078125q-1.046875 -1.484375 -1.234375 -3.703125q-0.09375 -0.484375 -0.09375 -1.71875q0 -2.6875 0.46875 -6.71875q0.484375 -4.046875 0.96875 -6.4375q0.375 -0.390625 0.421875 -1.15625q0.046875 -0.765625 -0.046875 -0.953125q0 -0.296875 0.484375 -1.921875q1.15625 -3.546875 1.625 -5.953125q2.59375 -7.875 5.09375 -12.578133q2.5 -4.703125 5.5625 -8.828125q4.140625 -4.234375 6.484375 -6.1875q2.359375 -1.96875 5.234375 -3.3125q3.75 -2.21875 5.375 -2.21875q0.296875 0 0.859375 0.203125q5.375 1.140625 8.0625 4.359375q2.703125 3.21875 3.9375 9.9375q0.875 5.859375 0.875 8.828125q0 4.7968826 -1.734375 9.703133q-1.734375 4.890625 -6.234375 12.28125q-5.1875 10.171875 -12.25 16.328125q-7.046875 6.140625 -13.296875 6.140625q-3.359375 0 -6.140625 -2.015625zm6.140625 -2.78125q3.265625 -0.390625 6.1875 -2.546875q2.9375 -2.15625 7.265625 -7.15625q3.734375 -4.3125 5.3125 -6.515625q1.59375 -2.21875 2.84375 -5.28125q1.25 -3.078125 3.0625 -9.421875q1.0625 -4.03125 1.390625 -6.28125q0.34375 -2.2500076 0.34375 -5.4218826l-0.09375 -6.25q-0.09375 -1.625 -0.671875 -3.390625q-0.578125 -1.78125 -1.34375 -2.65625q-1.4375 -1.625 -3.75 -1.625q-1.4375 0 -2.78125 0.671875q-1.828125 0.765625 -5.375 4.46875q-3.546875 3.6875 -6.390625 7.578125q-2.828125 3.890625 -2.828125 5.046875q0 0.09375 -0.09375 0.578125q-0.09375 0.46875763 -0.390625 0.8593826q-1.625 1.71875 -3.640625 7.0q-2.015625 5.28125 -3.5625 11.4375q-1.53125 6.140625 -1.71875 10.265625l-0.1875 3.265625q0 0.859375 0.140625 1.34375q0.140625 0.46875 0.625 1.09375q0.484375 0.625 0.859375 1.296875q0.484375 0.765625 1.53125 1.25q1.0625 0.484375 2.21875 0.484375q0.671875 0 1.046875 -0.09375z" fill-rule="nonzero"/></g><g filter="url(#shadowFilter-p.7)"><use xlink:href="#p.7" transform="matrix(1.0 0.0 0.0 1.0 -6.293203919578412 7.771459384227362)"/></g><defs><filter id="shadowFilter-p.7" filterUnits="userSpaceOnUse"><feGaussianBlur in="SourceAlpha" stdDeviation="3.0" result="blur"/><feComponentTransfer in="blur" color-interpolation-filters="sRGB"><feFuncR type="linear" slope="0" intercept="0.0"/><feFuncG type="linear" slope="0" intercept="0.0"/><feFuncB type="linear" slope="0" intercept="0.0"/><feFuncA type="linear" slope="0.64" intercept="0"/></feComponentTransfer></filter></defs><g id="p.7"><path fill="#000000" fill-opacity="0.0" d="m137.5702 87.791336l424.66144 0l0 51.370087l-424.66144 0z" fill-rule="evenodd"/><path fill="#000000" d="m160.97646 164.30946q-1.671875 0.265625 -2.1875 0.265625q-1.28125 0 -3.0625 -0.515625q-0.84375 -0.265625 -1.234375 -0.59375q-0.375 -0.3125 -0.859375 -0.921875q-0.46875 -0.59375 -0.71875 -0.921875q-1.15625 -1.59375 -1.15625 -2.8125q0 -0.96875 0.890625 -0.703125q0.640625 0.3125 1.40625 1.28125q0.765625 0.765625 1.65625 1.109375q0.90625 0.359375 2.1875 0.359375q0.453125 0 1.734375 -0.125q1.53125 -0.265625 3.578125 -0.96875q2.046875 -0.703125 3.0 -1.46875q3.078125 -2.109375 5.03125 -3.390625q1.953125 -1.28125 2.46875 -1.59375q0.125 -0.328125 1.34375 -0.78125l1.71875 -1.65625q1.671875 -1.796875 2.1875 -2.171875q0.0625 -0.453125 0.21875 -0.921875q0.15625 -0.484375 0.15625 -0.75q0.765625 -0.828125 2.296875 -4.0q1.546875 -3.171875 2.125 -5.46875q0.578125 -3.015625 0.578125 -5.3125q0 -3.90625 -1.375 -6.5625q-1.375 -2.65625 -4.0 -4.890625q-1.34375 -1.09375 -4.453125 -2.40625q-3.109375 -1.3125 -3.625 -1.109375q-0.3125 0.0625 -1.71875 3.6875q-1.40625 3.609375 -3.84375 10.390625l-2.046875 5.6875q-0.25 1.03125 -0.578125 1.921875q-0.3125 0.890625 -0.515625 1.609375q-0.828125 2.359375 -0.828125 2.6875q-0.703125 1.078125 -1.125 2.84375q-0.40625 1.75 -0.921875 5.984375q-0.578125 2.109375 -0.515625 1.921875q-0.25 1.078125 -0.453125 1.78125q-0.1875 0.703125 -0.375 0.640625l-0.25 0.265625q0 0.375 -0.578125 0.375q-0.515625 0 -1.15625 -0.28125q-0.640625 -0.296875 -1.015625 -0.671875q-0.265625 -0.90625 -0.265625 -1.28125q0 -0.828125 0.515625 -2.5625q0.515625 -2.171875 1.6875 -6.109375q1.1875 -3.9375 2.03125 -6.4375q0.4375 -1.078125 1.265625 -4.09375q0.71875 -2.359375 1.578125 -4.859375q0.859375 -2.5 1.25 -3.140625q0.125 -0.453125 0.859375 -2.5625q0.734375 -2.109375 1.765625 -4.671875l0.4375 -2.109375l-0.703125 -0.3125q-0.578125 0.1875 -1.015625 0.1875q-0.328125 0 -0.703125 -0.1875q-0.640625 0.1875 -1.765625 -0.546875q-1.125 -0.734375 -1.25 -1.375q-0.125 -0.203125 -0.15625 -0.578125q-0.03125 -0.390625 -0.03125 -0.515625q0.125 -0.640625 2.546875 -1.171875q2.4375 -0.546875 5.328125 -0.546875q1.203125 0 1.84375 0.0625q1.15625 0.0625 2.203125 0.390625q1.0625 0.3125 2.609375 0.953125l1.53125 0.5625q2.046875 0.78125 4.375 2.703125q2.34375 1.90625 4.15625 4.5q1.828125 2.59375 2.46875 5.28125q0.203125 0.828125 0.390625 2.3125q0.1875 1.46875 0.1875 2.625q0 1.34375 -0.25 1.65625q-0.1875 0.25 -0.1875 0.640625q0 0.390625 0.25 0.453125q-0.125 0.375 -0.453125 1.40625q-0.3125 1.015625 -0.703125 2.171875q-0.375 4.03125 -3.578125 9.46875q-0.328125 0 -0.515625 0.109375q-0.1875 0.09375 0.0625 0.15625q0 0.3125 -0.703125 1.21875q-0.1875 0.125 -0.796875 0.921875q-0.609375 0.796875 -0.859375 0.984375q-0.0625 0.453125 -0.390625 0.75q-0.3125 0.28125 -0.578125 0.28125q0 0 -0.09375 0.03125q-0.09375 0.03125 -0.09375 0.21875q-1.15625 1.671875 -4.203125 4.109375q-3.03125 2.421875 -5.390625 3.453125q-0.640625 0.4375 -1.515625 0.8125q-0.859375 0.390625 -1.171875 0.53125q-0.515625 0.4375 -2.59375 1.234375q-2.078125 0.8125 -3.359375 1.0625zm40.881943 -8.3125q-1.59375 1.40625 -3.828125 1.40625q-1.609375 0 -3.046875 -0.765625q-1.4375 -0.78125 -2.390625 -2.125q-0.84375 -1.015625 -1.234375 -2.296875q-0.375 -1.28125 -0.375 -3.140625q0 -0.640625 0.125 -2.5625q0.203125 -2.359375 1.578125 -4.921875q1.375 -2.5625 3.421875 -4.578125q2.046875 -2.015625 4.03125 -2.78125q1.015625 -0.640625 1.859375 -0.640625q0.4375 0 0.890625 0.0625q0.453125 0.0625 0.953125 0.125q1.421875 0.203125 2.15625 0.5625q0.734375 0.34375 1.25 1.046875q1.59375 1.59375 1.59375 3.703125q-0.25 1.546875 -1.984375 3.53125q-1.734375 1.984375 -4.15625 3.1875q-1.15625 0.390625 -2.625 0.390625q-1.984375 0 -3.203125 -0.828125q-0.578125 -0.203125 -0.890625 -0.203125q-0.578125 0 -0.875 0.78125q-0.28125 0.765625 -0.53125 2.8125q-0.078125 0.4375 -0.078125 1.28125q0 3.265625 2.1875 3.578125q1.46875 0.328125 2.109375 0.328125q0.765625 0 1.71875 -0.515625l1.21875 -0.703125q0.390625 -0.203125 0.703125 -0.515625q0.328125 -0.328125 0.578125 -0.578125q0.125 -0.125 0.375 -0.40625q0.265625 -0.296875 0.484375 -0.390625q0.234375 -0.09375 0.421875 -0.09375q0.265625 0 0.578125 0.296875q0.3125 0.28125 0.515625 0.40625q0.578125 0 0.25 0.796875q-0.3125 0.796875 -1.375 1.859375q-1.046875 1.046875 -2.40625 1.890625zm-0.0625 -13.578125q1.09375 -0.4375 2.203125 -1.59375q1.125 -1.15625 1.125 -1.921875q0 -0.765625 -0.578125 -1.28125q-0.5625 -0.515625 -1.59375 -0.515625q-0.765625 0 -1.15625 0.140625q-0.890625 0.25 -2.109375 1.375q-1.21875 1.109375 -2.109375 2.265625q-0.890625 1.15625 -0.703125 1.34375q0.3125 0.578125 2.5 0.578125q1.46875 0 2.421875 -0.390625zm13.503082 16.0625q-1.140625 -0.4375 -2.234375 -1.296875q-1.09375 -0.875 -1.46875 -1.515625q0 -0.125 0 -0.4375q0 -0.328125 0.1875 -0.421875q0.1875 -0.09375 0.703125 -0.09375q1.09375 0 3.453125 0.25q1.421875 0 3.203125 -0.34375q1.796875 -0.359375 1.984375 -0.8125q0.1875 0 0.1875 -0.0625q0 -0.125 -0.5 -0.640625q-0.125 0 -0.578125 -0.21875q-0.453125 -0.21875 -0.578125 -0.21875q0 -0.265625 -0.578125 -0.671875q-0.578125 -0.421875 -1.28125 -0.734375q-1.859375 -1.546875 -2.625 -2.28125q-0.765625 -0.734375 -0.578125 -1.046875l0 -0.328125q-0.4375 0 -0.984375 -1.25q-0.546875 -1.25 -0.546875 -2.328125q0 -1.15625 0.984375 -3.203125q1.0 -2.046875 2.28125 -3.328125q1.796875 -1.671875 4.640625 -3.515625q2.84375 -1.859375 4.515625 -2.375q1.078125 -0.453125 2.171875 -0.453125q1.03125 0 1.734375 0.453125q0.828125 0.515625 1.625 1.484375q0.796875 0.953125 1.0625 1.71875q0 1.40625 -0.296875 2.71875q-0.28125 1.3125 -0.859375 1.3125q-0.0625 0 -0.203125 0.0625q-0.125 0.0625 -0.125 0.3125q0 0.265625 -0.25 0.6875q-0.25 0.40625 -0.703125 0.796875q-1.40625 1.015625 -2.296875 1.015625q-0.71875 0 -0.90625 -0.703125q-0.125 -0.125 -0.25 -0.375q-0.125 -0.265625 -0.328125 -0.265625q-0.0625 0 -0.21875 -0.21875q-0.15625 -0.21875 -0.15625 -0.609375q0 -0.1875 0.15625 -0.40625q0.15625 -0.234375 0.21875 -0.296875q0.390625 0 1.28125 -1.5q0.90625 -1.515625 0.90625 -2.015625q0 -0.390625 -0.109375 -0.453125q-0.09375 -0.0625 -0.59375 -0.0625q-5.0 2.234375 -6.21875 3.390625q-0.1875 0.390625 -0.28125 0.515625q-0.09375 0.125 -0.359375 0.125q0 -0.578125 -3.390625 4.34375q-0.125 0.140625 -0.296875 0.78125q-0.15625 0.640625 -0.15625 1.078125q-0.125 0.515625 -0.125 0.578125q0 0.25 0.21875 0.515625q0.234375 0.25 0.609375 0.546875q0.390625 0.28125 0.78125 0.609375q3.328125 2.484375 4.640625 3.734375q1.3125 1.25 1.5625 2.078125q0.828125 1.28125 0.828125 2.3125q0 0.765625 -0.578125 1.34375q-0.5625 0.578125 -1.71875 1.078125q-0.703125 0.328125 -2.375 0.546875q-1.65625 0.234375 -3.265625 0.234375q-0.890625 0 -1.921875 -0.140625zm28.48021 -27.765625q-0.1875 0.1875 -0.375 0.1875q-0.265625 0 -0.828125 -0.390625q-0.640625 -0.0625 -1.703125 -1.109375q-1.0625 -1.0625 -1.0625 -1.375q-0.125 -1.28125 0.390625 -2.75q0.515625 -1.484375 1.859375 -1.546875q0.1875 0 0.5 0.109375q0.328125 0.09375 1.09375 0.40625q0.125 0.25 0.546875 1.09375q0.421875 0.828125 0.640625 1.59375q0.21875 0.765625 0.21875 1.40625q0 1.53125 -1.28125 2.375zm-7.21875 25.53125q-0.96875 0 -1.703125 -1.21875q-0.734375 -1.21875 -0.859375 -2.421875q0.25 -2.4375 0.375 -3.46875q0.515625 -2.359375 1.625 -6.484375q1.125 -4.140625 1.390625 -4.640625q0.1875 -0.328125 0.578125 -0.328125q0.375 0 0.828125 0.265625q0.453125 0.25 0.765625 0.5625q0.515625 0.703125 0.515625 1.609375q0 1.34375 -1.28125 5.625q-0.890625 3.203125 -1.15625 4.546875q-0.25 1.34375 -0.1875 2.875q-0.0625 0.453125 -0.234375 1.515625q-0.15625 1.046875 -0.28125 1.3125q-0.125 0.25 -0.375 0.25zm14.139862 14.015625q-0.640625 0.0625 -2.046875 -0.296875q-1.40625 -0.34375 -2.25 -0.71875q-1.265625 -0.96875 -2.390625 -2.859375q-1.125 -1.890625 -1.0 -2.78125q0 -0.25 0.453125 -0.25q0.453125 0 0.984375 0.25q0.546875 0.25 0.8125 0.640625q0.828125 1.09375 2.109375 1.921875q1.28125 0.828125 1.984375 0.703125q1.46875 -0.25 2.515625 -1.46875q1.0625 -1.21875 2.03125 -3.390625q0.703125 -1.921875 1.109375 -3.53125q0.421875 -1.59375 1.0000153 -4.09375q0.4375 -2.046875 0.640625 -2.75q0.25 -1.21875 0.3125 -1.65625q0.0625 -0.453125 0 -0.515625q-0.0625 -0.0625 -0.125 -0.125l-4.1562653 2.234375q-2.3125 0.765625 -4.421875 0.765625q-0.890625 0 -1.78125 -0.25q-0.71875 -0.328125 -1.390625 -1.671875q-0.671875 -1.34375 -0.53125 -2.296875q0.0625 -0.90625 1.71875 -3.71875q1.671875 -2.8125 1.921875 -2.75q0.328125 0 0.328125 -0.640625q0.125 -0.578125 3.515625 -3.265625q2.296875 -2.109375 4.0937653 -3.15625q1.796875 -1.0625 3.265625 -1.1875q0.453125 0.0625 0.796875 0.0625q0.359375 0 0.484375 0q0.125 0.0625 0.5 0.296875q0.390625 0.21875 1.03125 0.46875q1.34375 0.578125 2.359375 2.3125q1.03125 1.71875 1.15625 3.453125q-0.125 1.40625 -0.640625 2.75q-0.5 1.34375 -1.015625 1.28125q-0.515625 -0.0625 -1.25 0.453125q-0.734375 0.5 -0.734375 0.765625q0 0.703125 -1.03125 1.84375l-0.953125 4.484375q-1.03125 4.546875 -1.09375 5.1875q-0.765625 3.0 -1.59375 5.109375q-0.25 1.796875 -0.671875 2.71875q-0.421875 0.9375 -1.3125153 2.09375q-0.890625 1.53125 -2.28125 2.484375q-1.375 0.96875 -2.453125 1.09375zm-2.625 -21.5q0.0625 0.4375 1.09375 0.4375q1.78125 0 3.828125 -1.078125q0.515625 -0.265625 0.890625 -0.453125q0.390625 -0.1875 0.71875 -0.3125q1.140625 -0.515625 1.7187653 -0.828125q0.578125 -0.328125 0.84375 -0.84375q0.5625 -0.953125 1.265625 -3.140625q0.078125 -0.25 0.359375 -0.59375q0.28125 -0.359375 0.546875 -0.421875l0.25 0q0.328125 0 1.03125 0.25q0.3125 -0.125 0.4375 -0.625q0.140625 -0.515625 0.078125 -1.15625q-0.078125 -0.453125 -0.6875 -1.21875q-0.59375 -0.765625 -1.4375 -1.21875q-0.375 -0.125 -0.578125 -0.125q-0.625 0 -1.46875 0.609375q-0.828125 0.609375 -2.2343903 2.015625q-0.328125 0.25 -0.578125 0.515625q-0.25 0.25 -0.515625 0.4375q-2.5625 2.375 -4.1875 4.453125q-1.625 2.078125 -1.375 3.296875zm22.907455 6.65625q-0.1875 0 -0.671875 -0.3125q-0.484375 -0.328125 -0.796875 -0.65625q-0.453125 -0.4375 -0.546875 -0.953125q-0.09375 -0.515625 -0.09375 -2.375q0 -1.984375 0.796875 -4.34375q0.796875 -2.375 2.859375 -6.84375l2.109375 -4.484375q0.1875 -0.453125 0.890625 -1.28125l0.640625 0q0.453125 0 0.984375 0.578125q0.546875 0.578125 0.8125 1.34375q0 1.015625 -0.296875 1.921875q-0.28125 0.890625 -1.5 2.484375q-0.515625 0.78125 -1.21875 2.453125q-0.703125 1.65625 -0.953125 2.796875q-0.203125 0.328125 -0.484375 1.09375q-0.28125 0.765625 -0.671875 1.59375l-0.3125 1.40625l4.28125 -4.40625q2.8125 -2.8125 4.5625 -4.09375q1.765625 -1.28125 2.921875 -1.28125q1.34375 0 2.171875 1.71875q0.578125 0.96875 0.765625 1.515625q0.203125 0.53125 0.203125 1.6875q0 0.390625 -0.125 2.171875l0 3.96875q0.890625 -0.1875 1.625 -0.5q0.734375 -0.328125 1.125 -0.453125q1.46875 -0.640625 3.265625 -0.765625q-0.125 1.078125 -0.96875 2.359375q-0.828125 1.28125 -2.046875 2.15625q-1.21875 0.859375 -2.359375 0.859375q-0.90625 0 -1.90625 -0.828125q-0.984375 -0.84375 -1.421875 -1.859375q-0.265625 -0.703125 -0.296875 -1.71875q-0.03125 -1.03125 -0.03125 -2.890625l0 -2.375q0 -0.640625 -0.375 -0.640625q-0.265625 0 -1.21875 0.78125q-1.28125 1.140625 -4.15625 4.15625q-2.765625 2.875 -4.78125 4.453125q-2.015625 1.5625 -2.78125 1.5625zm29.628082 3.0625q-1.140625 -0.4375 -2.234375 -1.296875q-1.09375 -0.875 -1.46875 -1.515625q0 -0.125 0 -0.4375q0 -0.328125 0.1875 -0.421875q0.1875 -0.09375 0.703125 -0.09375q1.09375 0 3.453125 0.25q1.421875 0 3.203125 -0.34375q1.796875 -0.359375 1.984375 -0.8125q0.1875 0 0.1875 -0.0625q0 -0.125 -0.5 -0.640625q-0.125 0 -0.578125 -0.21875q-0.453125 -0.21875 -0.578125 -0.21875q0 -0.265625 -0.578125 -0.671875q-0.578125 -0.421875 -1.28125 -0.734375q-1.859375 -1.546875 -2.625 -2.28125q-0.765625 -0.734375 -0.578125 -1.046875l0 -0.328125q-0.4375 0 -0.984375 -1.25q-0.546875 -1.25 -0.546875 -2.328125q0 -1.15625 0.984375 -3.203125q1.0 -2.046875 2.28125 -3.328125q1.796875 -1.671875 4.640625 -3.515625q2.84375 -1.859375 4.515625 -2.375q1.078125 -0.453125 2.171875 -0.453125q1.03125 0 1.734375 0.453125q0.828125 0.515625 1.625 1.484375q0.796875 0.953125 1.0625 1.71875q0 1.40625 -0.296875 2.71875q-0.28125 1.3125 -0.859375 1.3125q-0.0625 0 -0.203125 0.0625q-0.125 0.0625 -0.125 0.3125q0 0.265625 -0.25 0.6875q-0.25 0.40625 -0.703125 0.796875q-1.40625 1.015625 -2.296875 1.015625q-0.71875 0 -0.90625 -0.703125q-0.125 -0.125 -0.25 -0.375q-0.125 -0.265625 -0.328125 -0.265625q-0.0625 0 -0.21875 -0.21875q-0.15625 -0.21875 -0.15625 -0.609375q0 -0.1875 0.15625 -0.40625q0.15625 -0.234375 0.21875 -0.296875q0.390625 0 1.28125 -1.5q0.90625 -1.515625 0.90625 -2.015625q0 -0.390625 -0.109375 -0.453125q-0.09375 -0.0625 -0.59375 -0.0625q-5.0 2.234375 -6.21875 3.390625q-0.1875 0.390625 -0.28125 0.515625q-0.09375 0.125 -0.359375 0.125q0 -0.578125 -3.390625 4.34375q-0.125 0.140625 -0.296875 0.78125q-0.15625 0.640625 -0.15625 1.078125q-0.125 0.515625 -0.125 0.578125q0 0.25 0.21875 0.515625q0.234375 0.25 0.609375 0.546875q0.390625 0.28125 0.78125 0.609375q3.328125 2.484375 4.640625 3.734375q1.3125 1.25 1.5625 2.078125q0.828125 1.28125 0.828125 2.3125q0 0.765625 -0.578125 1.34375q-0.5625 0.578125 -1.71875 1.078125q-0.703125 0.328125 -2.375 0.546875q-1.65625 0.234375 -3.265625 0.234375q-0.890625 0 -1.921875 -0.140625z" fill-rule="nonzero"/></g><g filter="url(#shadowFilter-p.8)"><use xlink:href="#p.8" transform="matrix(1.0 0.0 0.0 1.0 -6.293203919578412 7.771459384227362)"/></g><defs><filter id="shadowFilter-p.8" filterUnits="userSpaceOnUse"><feGaussianBlur in="SourceAlpha" stdDeviation="3.0" result="blur"/><feComponentTransfer in="blur" color-interpolation-filters="sRGB"><feFuncR type="linear" slope="0" intercept="0.0"/><feFuncG type="linear" slope="0" intercept="0.0"/><feFuncB type="linear" slope="0" intercept="0.0"/><feFuncA type="linear" slope="0.64" intercept="0"/></feComponentTransfer></filter></defs><g id="p.8"><path fill="#000000" fill-opacity="0.0" d="m84.375984 179.28477l209.13388 0l0 51.370087l-209.13388 0z" fill-rule="evenodd"/><path fill="#000000" d="m102.813484 193.5329q-0.703125 -0.375 -1.78125 -0.375q-1.53125 0 -2.59375 1.046875q-1.0625 1.03125 -1.609375 2.625q-0.53125 1.59375 -0.53125 3.234375q0 2.28125 0.78125 3.734375q0.796875 1.453125 2.421875 1.453125q0.6875 0 1.390625 -0.1875q0.71875 -0.203125 1.078125 -0.609375q0.25 -0.578125 0.640625 -1.96875l1.21875 0l-0.390625 2.859375q-1.96875 1.015625 -4.28125 1.015625q-1.75 0 -2.890625 -0.859375q-1.140625 -0.859375 -1.65625 -2.234375q-0.5 -1.375 -0.5 -2.96875q0 -2.4375 0.9375 -4.265625q0.953125 -1.84375 2.59375 -2.84375q1.640625 -1.0 3.65625 -1.0q1.046875 0 1.703125 0.109375q0.671875 0.09375 1.046875 0.203125q0.390625 0.109375 0.484375 0.125l0.359375 0.109375l-0.5625 3.40625l-1.359375 0l-0.15625 -2.609375zm5.517441 8.0625q-0.171875 1.53125 -0.171875 2.046875q0 0.890625 0.296875 1.234375q0.296875 0.328125 0.90625 0.328125q0.671875 0 1.375 -0.46875q0.71875 -0.484375 1.21875 -1.15625l1.046875 -7.875l1.9375 0l-1.1875 8.828125l-0.015625 0.203125q0 0.21875 0.078125 0.34375q0.078125 0.125 0.21875 0.125q0.375 0 0.953125 -0.5625l0.234375 0.5q-0.21875 0.359375 -0.84375 0.796875q-0.609375 0.4375 -1.359375 0.4375q-0.578125 0 -0.875 -0.296875q-0.296875 -0.296875 -0.265625 -0.84375q0 0.03125 0.0625 -0.640625l-0.015625 -0.015625q-1.5 1.8125 -3.359375 1.8125q-1.0625 0 -1.71875 -0.5625q-0.65625 -0.578125 -0.671875 -1.875q0 -0.890625 0.359375 -3.25l0.484375 -3.46875l-1.0 -0.546875l0.140625 -0.703125l2.53125 -0.359375l0.390625 0.203125l-0.625 4.953125l-0.125 0.8125zm14.790527 -4.15625q-0.171875 -0.234375 -0.75 -0.484375q-0.5625 -0.265625 -1.296875 -0.265625q-0.828125 0 -1.34375 0.375q-0.5 0.359375 -0.5 1.046875q0 0.59375 0.40625 1.09375q0.421875 0.484375 1.21875 1.0625q0.65625 0.484375 1.0625 0.875q0.40625 0.375 0.703125 0.953125q0.3125 0.5625 0.3125 1.28125q0 0.96875 -0.53125 1.65625q-0.515625 0.671875 -1.40625 1.015625q-0.890625 0.34375 -1.9375 0.34375q-0.828125 0 -1.671875 -0.1875q-0.84375 -0.1875 -1.09375 -0.40625l0.3125 -1.359375q0.375 0.296875 1.0625 0.5625q0.6875 0.25 1.4375 0.25q0.78125 0 1.34375 -0.328125q0.5625 -0.34375 0.5625 -1.109375q0 -0.65625 -0.453125 -1.109375q-0.453125 -0.46875 -1.328125 -1.09375q-1.90625 -1.3125 -1.90625 -3.0625q0 -0.875 0.5 -1.546875q0.5 -0.671875 1.359375 -1.03125q0.859375 -0.359375 1.890625 -0.359375q0.671875 0 1.375 0.125q0.703125 0.109375 0.984375 0.21875l-0.3125 1.484375zm4.291321 5.484375q-0.140625 0.859375 -0.140625 1.359375q0 0.453125 0.171875 0.640625q0.1875 0.1875 0.6250076 0.1875q0.40625 0 0.9375 -0.21875q0.53125 -0.234375 0.828125 -0.484375l0.1875 0.640625q-0.421875 0.46875 -1.296875 0.90625q-0.8750076 0.4375 -1.8125076 0.4375q-0.75 0 -1.203125 -0.375q-0.4375 -0.390625 -0.4375 -1.1875q0 -0.359375 0.140625 -1.5l0.828125 -6.296875l-1.109375 0l0.171875 -0.765625l1.15625 -0.390625q0.40625 -0.453125 1.171875 -2.5625l1.0468826 0l-0.328125 2.53125l2.390625 0l-0.140625 1.1875l-2.390625 0l-0.7968826 5.890625zm9.376015 -7.3125q1.84375 0 2.828125 1.125q1.0 1.109375 1.0 3.1875q0 1.6875 -0.6875 3.1875q-0.671875 1.484375 -1.921875 2.390625q-1.234375 0.90625 -2.796875 0.90625q-1.859375 0 -2.84375 -1.109375q-0.984375 -1.125 -0.984375 -3.203125q0 -1.71875 0.671875 -3.203125q0.6875 -1.5 1.921875 -2.390625q1.25 -0.890625 2.8125 -0.890625zm-0.265625 1.015625q-0.96875 0 -1.65625 0.8125q-0.6875 0.8125 -1.03125 2.0625q-0.34375 1.234375 -0.34375 2.53125q0 3.390625 2.03125 3.390625q0.953125 0 1.625 -0.8125q0.671875 -0.828125 1.0 -2.078125q0.34375 -1.25 0.34375 -2.546875q0 -3.359375 -1.96875 -3.359375zm8.896194 1.390625q0.75 -1.046875 1.75 -1.71875q1.015625 -0.6875 2.0625 -0.6875q1.015625 0 1.5625 0.5625q0.546875 0.546875 0.625 1.78125q0.6875 -1.0625 1.640625 -1.703125q0.96875 -0.640625 2.015625 -0.640625q1.015625 0 1.609375 0.65625q0.609375 0.640625 0.609375 2.0625q0 0.71875 -0.34375 2.578125l-0.109375 0.6875q-0.09375 0.53125 -0.125 0.703125q-0.109375 0.640625 -0.21875 1.3125q-0.09375 0.671875 -0.09375 1.078125q0 0.515625 0.25 0.515625q0.1875 0 0.40625 -0.125q0.234375 -0.125 0.5625 -0.421875l0.234375 0.484375q-0.25 0.375 -0.84375 0.8125q-0.59375 0.4375 -1.40625 0.4375q-0.6875 0 -0.96875 -0.3125q-0.28125 -0.328125 -0.28125 -0.921875q0.03125 -0.59375 0.328125 -2.28125l0.125 -0.8125q0.015625 -0.15625 0.09375 -0.484375q0.03125 -0.1875 0.1875 -1.171875q0.171875 -1.0 0.171875 -1.8125q0 -0.921875 -0.25 -1.25q-0.234375 -0.34375 -0.796875 -0.34375q-0.640625 0 -1.4375 0.625q-0.78125 0.625 -1.40625 1.59375q-0.046875 0.859375 -0.25 2.375l-0.625 4.609375l-1.96875 0l0.5625 -4.109375q0.359375 -2.3125 0.359375 -3.578125q-0.015625 -0.890625 -0.25 -1.203125q-0.234375 -0.3125 -0.859375 -0.3125q-0.6875 0 -1.578125 0.71875q-0.890625 0.703125 -1.5 1.71875l-0.9375 6.765625l-1.921875 0l1.21875 -9.0l-0.9375 -0.453125l0.15625 -0.71875l2.40625 -0.421875l0.390625 0.203125l-0.21875 2.203125zm27.243164 -4.484375q-0.703125 -0.375 -1.78125 -0.375q-1.53125 0 -2.59375 1.046875q-1.0625 1.03125 -1.609375 2.625q-0.53125 1.59375 -0.53125 3.234375q0 2.28125 0.78125 3.734375q0.796875 1.453125 2.421875 1.453125q0.6875 0 1.390625 -0.1875q0.71875 -0.203125 1.078125 -0.609375q0.25 -0.578125 0.640625 -1.96875l1.21875 0l-0.390625 2.859375q-1.96875 1.015625 -4.28125 1.015625q-1.75 0 -2.890625 -0.859375q-1.140625 -0.859375 -1.65625 -2.234375q-0.5 -1.375 -0.5 -2.96875q0 -2.4375 0.9375 -4.265625q0.953125 -1.84375 2.59375 -2.84375q1.640625 -1.0 3.65625 -1.0q1.046875 0 1.703125 0.109375q0.671875 0.09375 1.046875 0.203125q0.390625 0.109375 0.484375 0.125l0.359375 0.109375l-0.5625 3.40625l-1.359375 0l-0.15625 -2.609375zm5.954941 4.71875q0.21875 -0.609375 0.71875 -1.21875q0.5 -0.609375 1.1875 -1.0q0.6875 -0.40625 1.453125 -0.40625q0.453125 0 0.59375 0.125l-0.421875 2.15625q-0.28125 -0.203125 -0.921875 -0.203125q-0.765625 0 -1.53125 0.46875q-0.75 0.46875 -1.140625 1.328125l-0.875 6.703125l-1.921875 0l1.171875 -8.96875l-0.9375 -0.46875l0.140625 -0.71875l2.296875 -0.421875l0.390625 0.21875l-0.125 1.6875l-0.078125 0.71875zm12.167725 6.15625q-0.484375 0.734375 -1.5625 1.375q-1.078125 0.625 -2.390625 0.625q-1.28125 0 -2.125 -0.5625q-0.828125 -0.578125 -1.21875 -1.5q-0.390625 -0.921875 -0.390625 -1.984375q0 -1.8125 0.71875 -3.359375q0.734375 -1.5625 2.0 -2.46875q1.265625 -0.921875 2.796875 -0.921875q1.34375 0 2.015625 0.640625q0.6875 0.625 0.6875 1.671875q0 1.34375 -1.046875 2.25q-1.03125 0.90625 -2.46875 1.359375q-1.4375 0.4375 -2.59375 0.453125q-0.078125 1.328125 0.4375 2.265625q0.515625 0.921875 1.625 0.921875q0.84375 0 1.625 -0.390625q0.796875 -0.40625 1.453125 -1.09375l0.4375 0.71875zm-2.609375 -7.796875q-0.84375 0 -1.5 0.703125q-0.640625 0.6875 -1.015625 1.71875q-0.359375 1.03125 -0.4375 2.046875q0.890625 -0.046875 1.875 -0.40625q0.984375 -0.359375 1.625 -1.03125q0.65625 -0.6875 0.65625 -1.578125q0 -0.703125 -0.3125 -1.078125q-0.3125 -0.375 -0.890625 -0.375zm12.41394 7.84375q-0.015625 0.078125 -0.015625 0.203125q0 0.28125 0.09375 0.421875q0.109375 0.125 0.28125 0.125q0.296875 0 0.8125 -0.46875l0.265625 0.484375q-0.203125 0.328125 -0.78125 0.75q-0.5625 0.421875 -1.265625 0.421875q-0.578125 0 -0.921875 -0.28125q-0.328125 -0.296875 -0.3125 -0.90625l0.078125 -0.546875q-0.59375 0.71875 -1.390625 1.234375q-0.796875 0.5 -1.703125 0.5q-1.515625 0 -2.265625 -1.0625q-0.75 -1.078125 -0.75 -2.84375q0 -1.59375 0.703125 -3.1875q0.71875 -1.59375 2.078125 -2.640625q1.359375 -1.046875 3.1875 -1.046875q0.4375 0 0.96875 0.109375q0.546875 0.09375 1.0 0.21875l1.140625 -0.3125l-1.203125 8.828125zm-0.90625 -7.515625q-0.484375 -0.3125 -1.203125 -0.3125q-1.1875 0 -2.03125 0.890625q-0.84375 0.875 -1.265625 2.1875q-0.40625 1.3125 -0.40625 2.640625q0 1.34375 0.390625 2.078125q0.40625 0.734375 1.1875 0.734375q0.65625 0 1.3125 -0.484375q0.671875 -0.5 1.140625 -1.140625l0.875 -6.59375zm6.570633 5.984375q-0.140625 0.859375 -0.140625 1.359375q0 0.453125 0.171875 0.640625q0.1875 0.1875 0.625 0.1875q0.40625 0 0.9375 -0.21875q0.53125 -0.234375 0.828125 -0.484375l0.1875 0.640625q-0.421875 0.46875 -1.296875 0.90625q-0.875 0.4375 -1.8125 0.4375q-0.75 0 -1.203125 -0.375q-0.4375 -0.390625 -0.4375 -1.1875q0 -0.359375 0.140625 -1.5l0.828125 -6.296875l-1.109375 0l0.171875 -0.765625l1.15625 -0.390625q0.40625 -0.453125 1.171875 -2.5625l1.046875 0l-0.328125 2.53125l2.390625 0l-0.140625 1.1875l-2.390625 0l-0.796875 5.890625zm6.594757 1.8125q0 0.21875 0.078125 0.34375q0.09375 0.125 0.21875 0.125q0.203125 0 0.421875 -0.125q0.21875 -0.125 0.53125 -0.421875l0.25 0.484375q-0.28125 0.390625 -0.859375 0.828125q-0.578125 0.421875 -1.359375 0.421875q-0.65625 0 -1.0 -0.296875q-0.34375 -0.296875 -0.296875 -0.875q0.09375 -0.828125 0.484375 -3.53125q0.53125 -3.625 0.640625 -4.53125l-1.15625 -0.453125l0.125 -0.65625l2.765625 -0.421875l0.421875 0.203125l-1.25 8.71875l-0.015625 0.1875zm0.53125 -11.09375q-0.4375 0 -0.75 -0.3125q-0.296875 -0.3125 -0.296875 -0.765625q0 -0.578125 0.390625 -0.984375q0.40625 -0.40625 0.953125 -0.40625q0.5 0 0.78125 0.3125q0.28125 0.296875 0.28125 0.75q-0.015625 0.59375 -0.390625 1.0q-0.375 0.40625 -0.96875 0.40625zm8.1453705 1.96875q1.84375 0 2.828125 1.125q1.0 1.109375 1.0 3.1875q0 1.6875 -0.6875 3.1875q-0.671875 1.484375 -1.921875 2.390625q-1.234375 0.90625 -2.796875 0.90625q-1.859375 0 -2.84375 -1.109375q-0.984375 -1.125 -0.984375 -3.203125q0 -1.71875 0.671875 -3.203125q0.6875 -1.5 1.921875 -2.390625q1.25 -0.890625 2.8125 -0.890625zm-0.265625 1.015625q-0.96875 0 -1.65625 0.8125q-0.6875 0.8125 -1.03125 2.0625q-0.34375 1.234375 -0.34375 2.53125q0 3.390625 2.03125 3.390625q0.953125 0 1.625 -0.8125q0.671875 -0.828125 1.0 -2.078125q0.34375 -1.25 0.34375 -2.546875q0 -3.359375 -1.96875 -3.359375zm8.896194 1.390625q0.765625 -1.0625 1.765625 -1.734375q1.015625 -0.671875 2.078125 -0.671875q1.078125 0 1.640625 0.640625q0.5625 0.625 0.5625 2.0625q0 0.6875 -0.34375 2.609375l-0.125 0.671875l-0.078125 0.546875q-0.34375 1.625 -0.359375 2.453125l0 0.109375q0 0.5 0.234375 0.5q0.375 0 0.875 -0.453125l0.25 0.5q-0.21875 0.3125 -0.828125 0.734375q-0.59375 0.40625 -1.359375 0.40625q-1.25 0 -1.25 -1.171875q0 -0.578125 0.359375 -2.4375l0.125 -0.6875l0.078125 -0.4375q0.40625 -2.1875 0.40625 -3.15625q-0.015625 -0.859375 -0.265625 -1.171875q-0.234375 -0.328125 -0.828125 -0.328125q-0.703125 0 -1.59375 0.71875q-0.890625 0.71875 -1.515625 1.765625l-0.90625 6.71875l-1.921875 0l1.203125 -9.0l-0.9375 -0.453125l0.15625 -0.71875l2.421875 -0.421875l0.390625 0.203125l-0.234375 2.203125zm14.604187 -0.578125q-0.171875 -0.234375 -0.75 -0.484375q-0.5625 -0.265625 -1.296875 -0.265625q-0.828125 0 -1.34375 0.375q-0.5 0.359375 -0.5 1.046875q0 0.59375 0.40625 1.09375q0.421875 0.484375 1.21875 1.0625q0.65625 0.484375 1.0625 0.875q0.40625 0.375 0.703125 0.953125q0.3125 0.5625 0.3125 1.28125q0 0.96875 -0.53125 1.65625q-0.515625 0.671875 -1.40625 1.015625q-0.890625 0.34375 -1.9375 0.34375q-0.828125 0 -1.671875 -0.1875q-0.84375 -0.1875 -1.09375 -0.40625l0.3125 -1.359375q0.375 0.296875 1.0625 0.5625q0.6875 0.25 1.4375 0.25q0.78125 0 1.34375 -0.328125q0.5625 -0.34375 0.5625 -1.109375q0 -0.65625 -0.453125 -1.109375q-0.453125 -0.46875 -1.328125 -1.09375q-1.90625 -1.3125 -1.90625 -3.0625q0 -0.875 0.5 -1.546875q0.5 -0.671875 1.359375 -1.03125q0.859375 -0.359375 1.890625 -0.359375q0.671875 0 1.375 0.125q0.703125 0.109375 0.984375 0.21875l-0.3125 1.484375z" fill-rule="nonzero"/></g><path fill="#000000" fill-opacity="0.0" d="m-108.1706 123.732285l218.61417 0l0 25.51181l-218.61417 0z" fill-rule="evenodd"/></g></svg>